<svg width="37" height="37" viewBox="0 0 37 37" fill="none" xmlns="http://www.w3.org/2000/svg">
<circle cx="18.5" cy="18.5" r="18" stroke="#323232"/>
<g clip-path="url(#clip0_119_534)">
<path d="M27.8993 22.8699C27.8763 22.8203 27.8548 22.7792 27.8349 22.7462C27.5053 22.1525 26.8753 21.4238 25.9454 20.5598L25.9258 20.54L25.9159 20.5303L25.906 20.5204H25.896C25.474 20.1181 25.2067 19.8475 25.0948 19.7091C24.8901 19.4452 24.8442 19.1782 24.9561 18.9076C25.0352 18.7032 25.3322 18.2715 25.8464 17.6119C26.1169 17.2623 26.3312 16.9821 26.4894 16.771C27.6304 15.2541 28.1251 14.2848 27.9733 13.8626L27.9144 13.764C27.8748 13.7046 27.7726 13.6503 27.6079 13.6007C27.4428 13.5513 27.2318 13.5431 26.9746 13.5761L24.1256 13.5957C24.0794 13.5794 24.0135 13.5809 23.9277 13.6007C23.8419 13.6206 23.799 13.6305 23.799 13.6305L23.7494 13.6553L23.7101 13.685C23.6771 13.7047 23.6408 13.7393 23.6012 13.7888C23.5618 13.8381 23.5289 13.896 23.5025 13.9619C23.1924 14.7599 22.8397 15.5018 22.4439 16.1877C22.1999 16.5966 21.9758 16.9511 21.7711 17.2512C21.5667 17.5512 21.3952 17.7722 21.2568 17.9139C21.1182 18.0557 20.9932 18.1693 20.8808 18.2551C20.7687 18.341 20.6831 18.3773 20.6238 18.364C20.5643 18.3507 20.5084 18.3375 20.4554 18.3244C20.3631 18.265 20.2889 18.1842 20.233 18.082C20.1768 17.9798 20.1389 17.8511 20.1191 17.6962C20.0995 17.5411 20.0878 17.4077 20.0845 17.2955C20.0814 17.1835 20.0828 17.025 20.0895 16.8206C20.0964 16.6161 20.0995 16.4777 20.0995 16.4051C20.0995 16.1545 20.1044 15.8825 20.1142 15.589C20.1241 15.2955 20.1322 15.063 20.139 14.8917C20.1457 14.7202 20.1488 14.5388 20.1488 14.3475C20.1488 14.1563 20.1372 14.0063 20.1142 13.8974C20.0914 13.7887 20.0565 13.6831 20.0106 13.5808C19.9643 13.4786 19.8966 13.3995 19.8078 13.3434C19.7187 13.2873 19.6081 13.2428 19.4764 13.2098C19.1268 13.1307 18.6817 13.0879 18.1408 13.0812C16.9142 13.0681 16.126 13.1473 15.7765 13.3188C15.638 13.3912 15.5126 13.4902 15.4006 13.6154C15.2818 13.7606 15.2653 13.8398 15.351 13.8528C15.7468 13.9121 16.0269 14.0539 16.1918 14.2781L16.2513 14.3969C16.2975 14.4827 16.3436 14.6344 16.3898 14.852C16.4359 15.0696 16.4657 15.3103 16.4788 15.574C16.5117 16.0555 16.5117 16.4677 16.4788 16.8106C16.4458 17.1536 16.4146 17.4206 16.3848 17.6119C16.3551 17.8032 16.3106 17.9581 16.2513 18.0768C16.1918 18.1955 16.1523 18.2681 16.1325 18.2944C16.1127 18.3207 16.0962 18.3373 16.0831 18.3439C15.9974 18.3767 15.9082 18.3934 15.816 18.3934C15.7236 18.3934 15.6115 18.3472 15.4796 18.2548C15.3478 18.1625 15.211 18.0356 15.0691 17.874C14.9273 17.7123 14.7674 17.4865 14.5892 17.1963C14.4113 16.9062 14.2266 16.5632 14.0353 16.1676L13.8771 15.8806C13.7782 15.696 13.643 15.4272 13.4715 15.0744C13.3 14.7215 13.1483 14.3802 13.0165 14.0504C12.9638 13.9119 12.8846 13.8065 12.7791 13.7339L12.7296 13.7042C12.6967 13.6778 12.6438 13.6499 12.5713 13.6201C12.4987 13.5903 12.423 13.569 12.3438 13.5558L9.63324 13.5755C9.35626 13.5755 9.16832 13.6383 9.06937 13.7636L9.02976 13.8229C9.00998 13.8559 9 13.9086 9 13.9812C9 14.0538 9.01978 14.1428 9.05939 14.2483C9.45508 15.1782 9.88538 16.0751 10.3503 16.939C10.8152 17.803 11.2192 18.4989 11.5621 19.0262C11.905 19.5539 12.2545 20.0519 12.6107 20.52C12.9668 20.9883 13.2026 21.2884 13.3179 21.4202C13.4334 21.5523 13.5241 21.651 13.5901 21.717L13.8374 21.9543C13.9957 22.1126 14.2281 22.3022 14.5348 22.5231C14.8416 22.7442 15.1812 22.9618 15.5538 23.1763C15.9265 23.3904 16.36 23.5652 16.8547 23.7004C17.3493 23.8357 17.8307 23.89 18.299 23.8638H19.4367C19.6674 23.8438 19.8422 23.7713 19.961 23.6461L20.0004 23.5965C20.0268 23.5571 20.0516 23.496 20.0745 23.4137C20.0976 23.3313 20.1091 23.2404 20.1091 23.1417C20.1024 22.8581 20.124 22.6026 20.1733 22.3751C20.2226 22.1476 20.2788 21.9762 20.3417 21.8607C20.4045 21.7453 20.4754 21.6479 20.5543 21.569C20.6333 21.4899 20.6897 21.442 20.7227 21.4255C20.7556 21.4089 20.7818 21.3976 20.8016 21.3909C20.9599 21.3381 21.1461 21.3892 21.3607 21.5443C21.5751 21.6993 21.7761 21.8907 21.9642 22.1181C22.1522 22.3458 22.378 22.6012 22.6418 22.8847C22.9057 23.1683 23.1364 23.3792 23.3342 23.5179L23.532 23.6366C23.6641 23.7158 23.8356 23.7883 24.0466 23.8543C24.2573 23.9202 24.4419 23.9367 24.6005 23.9037L27.1328 23.8642C27.3833 23.8642 27.5782 23.8227 27.7165 23.7405C27.855 23.658 27.9373 23.5672 27.9638 23.4684C27.9903 23.3695 27.9917 23.2573 27.9689 23.1319C27.9454 23.0068 27.9223 22.9193 27.8993 22.8699Z" fill="#A4A4A4"/>
</g>
<defs>
<clipPath id="clip0_119_534">
<rect width="19" height="19" fill="white" transform="translate(9 9)"/>
</clipPath>
</defs>
</svg>
